<svg xmlns="http://www.w3.org/2000/svg" width="119" height="63" viewBox="0 0 119 63" fill="none">
  <path d="M32.7762 15.6564C32.9243 15.1093 33.0586 13.9084 33.4428 13.6074C35.2737 12.173 39.6042 11.8895 41.7437 11.9371C46.1376 11.6165 52.6959 13.4144 56.3971 15.5983C57.6448 16.3344 58.4741 17.154 59.5701 18.0558C64.5782 12.281 75.7031 11.2772 82.4842 12.6393C85.1481 13.1743 85.5304 12.9393 86.1357 15.6564C86.7942 15.9531 89.6125 16.5369 89.7745 17.2294C91.5017 24.6119 93.4941 31.9304 95.4475 39.2506L96.6686 43.8344C97.0915 45.3788 98.2827 48.0583 95.9553 48.4095C95.1157 48.3647 94.2337 48.1123 93.4183 47.8917C88.6769 46.6088 84.0804 46.1581 79.2127 45.8168C74.0979 45.7688 69.8792 45.98 64.8369 47.1412C64.1903 50.9249 56.171 51.7721 53.8316 47.1412C45.5168 44.4596 32.9379 45.9914 24.3204 48.0699C22.7744 48.4427 21.2368 48.2143 21.7249 46.1665C22.3871 43.8347 22.9926 41.488 23.6035 39.1402L27.8077 22.6603C29.2487 16.8779 27.7456 17.0485 32.7762 15.6564ZM75.337 13.6629C70.1949 14.3352 63.5738 15.6244 60.004 19.8395C59.8981 24.9137 60.1836 30.333 60.3662 35.426L60.5006 39.9211C60.5388 41.4532 60.5941 43.7828 60.3088 45.2872C61.8138 43.6017 69.0248 40.1068 71.3327 40.5078C75.9454 38.5897 85.7944 39.784 90.4304 40.8241C89.9575 39.5897 89.7492 38.5098 89.4449 37.2207L88.4251 32.8332C87.082 26.8929 85.8802 20.7911 84.5055 14.9015C82.4747 13.7962 77.665 13.4256 75.337 13.6629ZM40.8768 13.6629C39.0079 14.004 36.4364 14.1076 34.6487 14.9015C34.133 15.8104 33.0445 21.6277 32.7653 22.9072L30.0802 35.3771C29.7209 37.0611 29.3074 38.8281 28.9719 40.5078C34.9288 39.7066 44.9001 38.7392 50.6842 41.1094C53.4058 41.7295 56.9224 43.3791 59.0374 45.2872C58.3448 40.2522 58.0563 24.831 59.0374 19.8395C54.6035 14.8951 46.9911 14.0466 40.8768 13.6629ZM32.3017 17.4153C31.8131 17.5808 30.9002 17.8626 30.4554 18.0558C28.2991 27.6478 25.7593 37.1369 23.2432 46.6246C30.7715 44.6236 50.652 41.7923 57.5054 47.1412C56.6315 47.1426 56.5025 47.183 55.6728 47.4954C57.3281 48.7693 61.6129 48.8819 63.2237 47.4954C62.4742 47.6049 62.3272 47.5408 61.6569 47.1412C61.9893 46.6302 62.1462 46.4079 62.3496 45.8168C63.3984 45.6774 64.3967 45.3424 65.4487 45.1292C75.1361 43.1658 85.2599 43.5741 94.7888 46.2558C95.0541 46.3305 95.3809 46.5019 95.6304 46.6246C95.4707 45.596 95.1161 44.3764 94.85 43.358L91.3386 29.7492C91.0296 28.5599 90.7718 27.3948 90.4304 26.2097L88.5199 18.0558C87.823 17.8301 87.08 17.5586 86.3718 17.4153C87.1108 20.0342 87.6179 22.9237 88.205 25.5934C88.5787 27.2923 92.1397 41.7998 92.0109 42.1577C91.8906 42.4919 91.3345 42.5426 91.0331 42.4662C82.1812 40.2227 65.6763 40.1767 59.5701 48.1363C58.6768 47.3911 57.7478 46.2527 56.8409 45.6332C50.5432 41.3384 42.1175 40.5953 34.8366 41.4283C32.4504 41.7013 30.2056 42.3703 27.8593 42.7859C25.9102 43.131 27.7743 38.0336 27.9576 37.1261C28.3422 35.4578 32.5623 17.8662 32.4555 17.4225C32.3591 17.4009 32.3904 17.3943 32.3017 17.4153Z" fill="#1F2558"/>
  <path d="M53.8314 21.3081C48.9974 18.974 43.578 17.5308 38.2072 18.2073C37.7806 18.2611 37.2071 18.4662 36.9834 17.919C37.1101 17.1003 41.1777 16.9212 41.9634 16.8954C45.876 16.6331 50.4084 17.654 53.7759 19.7848C54.5559 20.2784 56.6756 21.8744 56.9867 22.8008C56.9082 23.749 54.2859 21.6108 53.8314 21.3081Z" fill="#1F2558"/>
  <path d="M68.0846 19.8395C66.5363 20.6526 64.9001 21.1913 63.4762 22.2681C63.1225 22.5356 61.0922 23.7674 62.0986 22.3989C64.9243 18.5564 69.8455 17.4874 74.1327 16.8955C76.5115 16.9033 78.9404 17.0294 81.011 18.3857C81.2737 18.5577 82.4866 18.3727 81.89 19.3195C81.5342 19.8843 80.905 19.5966 80.5023 19.2781C76.4845 16.9154 71.9635 19.1051 68.0846 19.8395Z" fill="#1F2558"/>
  <path d="M30.4553 18.0556C30.9002 17.8624 31.813 17.5807 32.3017 17.4152C32.3904 17.3941 32.3591 17.4008 32.4554 17.4223C32.5622 17.866 28.3421 35.4576 27.9576 37.1259C27.7742 38.0334 25.9102 43.1308 27.8593 42.7857C30.2056 42.3702 32.4503 41.7011 34.8366 41.4281C42.1174 40.5951 50.5432 41.3382 56.8409 45.633C57.7478 46.2525 58.6768 47.391 59.5701 48.1361C65.6763 40.1765 82.1811 40.2225 91.033 42.466C91.3345 42.5424 91.8906 42.4917 92.0108 42.1575C92.1397 41.7996 88.5787 27.2921 88.2049 25.5932C87.6178 22.9235 87.1108 20.034 86.3718 17.4152C87.08 17.5584 87.8229 17.8299 88.5199 18.0556L90.4304 26.2096C90.7718 27.3946 91.0295 28.5597 91.3386 29.749L94.85 43.3578C95.1161 44.3762 95.4707 45.5958 95.6303 46.6244C95.3808 46.5017 95.0541 46.3303 94.7887 46.2556C85.2599 43.5739 75.1361 43.1657 65.4486 45.129C64.3967 45.3422 63.3983 45.6772 62.3495 45.8166C62.1462 46.4077 61.9893 46.63 61.6569 47.141C62.3272 47.5406 62.4742 47.6047 63.2237 47.4952C61.6129 48.8817 57.328 48.7691 55.6727 47.4952C56.5025 47.1828 56.6315 47.1424 57.5054 47.141C50.652 41.7921 30.7714 44.6234 23.2432 46.6244C25.7592 37.1367 28.299 27.6476 30.4553 18.0556Z" fill="#343B95"/>
  <path d="M53.2448 25.3514C49.2306 23.2904 44.9168 22.1103 40.448 22.0167C39.698 21.8236 36.1712 22.7801 36.6559 21.6243C37.2244 21.0567 40.9611 20.8569 41.9631 20.845C45.9106 20.6466 51.1087 22.0727 54.3468 24.5016C54.7068 24.7715 57.7411 27.1045 56.5166 27.421C55.5606 26.8004 54.2004 25.8901 53.2448 25.3514Z" fill="#1F2558"/>
  <path d="M68.7228 24.0144C66.8602 24.65 64.9264 25.5512 63.2679 26.6574C62.7742 26.9868 60.9967 28.0368 62.2423 26.462C65.1897 22.7357 70.189 21.6173 74.5022 21.1055C77.7672 20.9821 79.0818 21.4929 81.9952 22.5163C82.1129 22.5662 82.5416 22.4531 82.7976 22.6521C83.1982 22.9635 82.8971 23.7186 82.4841 23.7585C81.6875 23.8357 80.9271 23.2164 80.1948 22.9708C76.6365 21.7449 72.1803 22.8977 68.7228 24.0144Z" fill="#1F2558"/>
  <path d="M53.2448 29.8539C48.0507 26.8108 42.3085 25.9527 36.4831 26.396C36.174 26.4195 35.9674 25.9944 36.1663 25.7425C36.5509 25.2558 40.3917 25.0388 41.1368 25.0403C45.3156 24.8234 49.9625 26.2085 53.5159 28.5304C54.2139 28.9865 56.3705 30.5985 56.6065 31.4117C56.4259 32.248 53.9509 30.2292 53.2448 29.8539Z" fill="#1F2558"/>
  <path d="M68.7226 28.3633C67.624 28.6824 62.1427 31.6193 62.0844 31.595L62.041 31.4767C62.547 27.8871 72.3372 25.3965 75.3364 25.3512C77.8361 25.1275 80.1749 25.6363 82.4582 26.7018C83.4059 26.7952 84.0813 27.4704 83.1399 27.8564C82.3496 28.1804 81.5139 27.4391 80.7878 27.1856C77.8795 25.9685 71.5325 27.1543 68.7226 28.3633Z" fill="#1F2558"/>
  <path d="M53.8312 34.5557C48.9472 31.7836 43.1919 30.2433 37.6506 30.4599C37.2497 30.4804 35.4402 31.0671 35.6955 30.0898C36.116 29.5468 38.6888 29.3716 39.4138 29.2844C45.1281 29.0008 51.563 30.6845 55.882 34.8372C56.1241 35.07 56.8419 35.7218 56.3586 36.0239C55.9437 35.9903 54.3629 34.8738 53.8312 34.5557Z" fill="#1F2558"/>
  <path d="M69.0709 32.6282C68.0433 32.9739 62.5261 35.7947 62.3661 35.7065L62.332 35.5499C63.2696 31.9866 72.5309 29.8124 75.623 29.689C78.1558 29.5624 80.5427 29.8283 82.8194 30.9667C83.1232 31.1186 83.8208 30.8734 84.1003 31.4075C84.3504 33.0558 81.9999 31.7221 81.6931 31.5974C78.4723 30.2879 72.1176 31.5249 69.0709 32.6282Z" fill="#1F2558"/>
  <path d="M53.2452 38.4884C48.3677 36.0436 42.7165 34.6681 37.3042 34.9498C36.7241 34.9799 35.4932 35.5029 35.1934 34.7933C35.2883 34.0181 38.631 33.8039 39.4141 33.7016C44.5802 33.4275 50.4276 34.8488 54.6259 38.1539C55.0607 38.4962 56.3073 39.4149 56.2322 39.9962C55.7949 40.1856 53.7993 38.7914 53.2452 38.4884Z" fill="#1F2558"/>
  <path d="M69.5267 36.9504C67.6226 37.5826 65.7932 38.2581 64.0713 39.3476C63.6902 39.5888 62.0827 40.4018 63.0868 39.1955C66.0791 35.6015 71.649 34.4151 76.0216 33.9699C78.2206 33.8574 80.6965 34.0282 82.7472 34.9684C83.5068 35.2724 84.8775 35.386 84.4014 36.148C83.883 36.9778 81.3139 35.4516 80.253 35.4482C76.4993 35.2307 73.1148 35.9321 69.5267 36.9504Z" fill="#1F2558"/>
</svg>