<svg xmlns="http://www.w3.org/2000/svg" width="100" height="76" viewBox="0 0 100 76" fill="none">
  <path d="M48.1813 21.2075C43.7807 18.6162 46.6207 13.1185 49.5515 10.4471C50.9477 10.1008 54.6131 14.8427 53.8936 18.3067C53.5136 20.1356 52.542 20.4212 51.5719 21.2075C52.094 25.3577 55.8455 35.2072 58.1965 36.6094L58.2194 36.604C61.3258 35.8485 64.3367 29.4878 66.0601 25.8827C63.3033 21.9586 66.6764 18.4767 69.3601 17.5515C72.3406 20.6434 72.1634 27.9446 67.2694 26.9917C65.4726 31.5742 62.853 36.8996 59.4079 38.4948C54.4037 40.8121 51.7502 26.0852 50.7937 21.2075C50.2928 21.463 50.0731 21.5161 49.5515 21.6086C48.7319 26.6102 46.1549 36.638 42.7052 38.5647C39.0889 40.5847 33.9862 31.4075 32.8529 26.7285L32.2309 26.9917C32.9519 31.1702 33.3728 36.2739 31.9656 40.2566C29.6942 46.6854 24.1524 35.6634 22.1219 33.6011L21.7061 34.2124C23.3931 38.0474 28.1003 45.6934 30.9466 45.3756C32.8967 45.1579 33.9295 39.6265 34.3948 37.2946C34.8731 35.2035 34.7521 33.4704 36.0921 36.6404C41.2737 48.8991 45.4011 47.2645 48.9978 34.049C49.1234 33.5876 50.0313 28.5292 50.5862 31.6674C51.7656 38.3358 56.1801 49.5072 61.1253 41.8609C61.8257 40.7781 64.3123 34.521 64.9153 36.124C65.4217 38.527 65.8197 41.0631 66.9281 43.038C69.4431 47.0723 73.6279 42.0876 75.6509 39.3188C76.8334 37.7595 80.3691 30.7568 76.6185 36.2553C65.3418 52.7867 67.4123 28.9583 68.0978 27.8996C68.9997 26.5066 68.054 36.8593 69.3148 39.4994C70.5956 42.1813 75.9835 33.9437 77.5024 32.0182C76.7824 27.9206 82.0201 24.9719 82.4751 26.9292C82.8993 28.7541 82.0813 34.769 79.7208 34.8001C77.1289 38.629 74.4468 50.0063 73.7981 55.1664C73.5659 57.0131 73.6083 58.7458 73.5869 60.5744C71.4573 66.4045 49.3636 64.1568 45.4256 63.4819C44.5426 63.3305 43.653 63.0189 42.7654 62.9353C39.5562 63.1635 26.5978 64.6366 26.4744 60.362C26.2523 52.6605 23.6567 40.8606 20.2947 34.8001C19.8656 34.7667 19.2308 34.653 18.8206 34.501C18.2636 33.1248 16.0218 25.2437 18.8242 26.3779C20.8376 27.1928 23.0955 28.8192 22.4825 32.5628C24.4749 33.9143 27.7447 40.1441 29.7938 40.2908C31.9701 40.4465 31.258 29.2335 31.3003 27.1193C29.9322 26.97 28.6362 25.2791 28.607 23.1448C28.5886 21.7941 29.9391 16.6494 31.1963 17.6575C33.2799 19.3281 36.8558 21.8133 33.9331 25.8827C35.0828 28.256 39.8629 38.3415 42.3395 36.2038C45.0849 33.8343 47.1557 25.3237 48.1813 21.2075ZM49.7892 12.7589C46.4678 15.8044 46.6152 20.5735 50.266 20.1575C54.6342 19.5685 52.3914 13.938 49.7892 12.7589ZM30.9395 18.6312C30.4904 20.0515 29.9756 21.4843 29.8975 23.0701C30.4585 24.8803 31.4322 25.4522 32.7086 25.1614C35.547 22.0868 32.2725 20.1849 30.9395 18.6312ZM69.0055 19.2075C67.853 20.0847 66.8401 21.0447 66.5269 23.0701C66.7523 24.2877 67.1095 24.9754 67.9741 25.1614C71.7752 25.8916 69.9786 19.4638 69.0055 19.2075ZM81.2355 28.32C80.1895 28.9596 77.5972 30.8026 79.3977 32.7571C81.4522 34.6136 81.6492 29.7348 81.3236 28.3473L81.2355 28.32ZM18.8206 28.32C18.7409 30.2695 19.0939 31.6729 19.6736 33.4352C20.188 33.3697 20.6432 33.1897 21.0842 32.7571C22.5337 30.1253 20.0167 28.9366 18.8206 28.32ZM49.9823 33.4352C46.2896 48.4352 40.9489 51.1343 35.2717 37.2438C32.7418 50.5735 29.7996 47.9956 24.2713 40.7919C26.2129 45.9507 27.7701 52.2983 27.9395 58.2904C33.0844 55.6012 44.0861 55.194 49.5515 55.2101C57.0431 55.2035 64.7888 55.2576 72.0619 58.2904C72.6721 50.8114 73.7189 47.1539 76.1482 40.4331C75.3919 41.1536 74.7944 42.0992 74.0855 42.8661C69.2136 48.1376 66.0118 46.5428 64.341 37.7431C60.0443 47.8293 54.9424 49.2666 51.0416 37.0286C50.8892 36.55 50.0798 33.5447 49.9823 33.4352ZM48.9668 57.5591C43.985 57.5444 33.504 57.9048 28.7337 60.3625C29.8809 60.6251 31.041 60.7729 32.1942 60.9663L36.552 61.7346C39.9065 62.3015 42.6653 62.8179 46.0345 62.8175L50.7937 62.813C56.5092 62.8288 65.6081 62.4332 70.9419 60.3625C65.8892 57.5436 54.3013 57.5499 48.9668 57.5591Z" fill="#1B1E4E"/>
  <path d="M50.2655 20.1573C46.6147 20.5734 46.4672 15.8043 49.7886 12.7588C52.3908 13.9379 54.6336 19.5683 50.2655 20.1573ZM51.5713 15.4637C51.5524 16.9293 51.499 17.2643 51.1611 18.6311H51.7267C52.2887 17.7532 52.5268 15.8998 51.5713 15.4637Z" fill="#343B95"/>
  <path d="M51.1611 18.6312C51.499 17.2644 51.5524 16.9294 51.5714 15.4639C52.5269 15.9 52.2888 17.7534 51.7268 18.6312H51.1611Z" fill="#FEFEFE"/>
  <path d="M29.8975 23.0702C29.9756 21.4845 30.4903 20.0516 30.9395 18.6313C32.2725 20.185 35.547 22.087 32.7086 25.1616C31.4322 25.4523 30.4585 24.8804 29.8975 23.0702ZM32.8528 21.6087C32.2748 22.2421 32.1655 23.2838 32.7086 24.0423C32.9216 23.5528 33.4116 21.9008 32.8528 21.6087Z" fill="#343B95"/>
  <path d="M66.5264 23.0702C66.8396 21.0447 67.8525 20.0848 69.005 19.2075C69.9781 19.4639 71.7747 25.8917 67.9736 25.1615C67.109 24.9755 66.7519 24.2878 66.5264 23.0702ZM69.3596 20.7345C69.1366 21.4191 69.0171 22.7547 69.005 23.5254C69.0953 23.7074 69.2145 24.009 69.3596 24.0423C69.7428 23.3768 70.0629 21.0723 69.3596 20.7345Z" fill="#343B95"/>
  <path d="M69.0049 23.5253C69.017 22.7546 69.1365 21.419 69.3595 20.7344C70.0628 21.0722 69.7427 23.3767 69.3595 24.0422C69.2144 24.0089 69.0952 23.7073 69.0049 23.5253Z" fill="#FEFEFE"/>
  <path d="M32.7081 24.042C32.1651 23.2835 32.2743 22.2418 32.8524 21.6084C33.4112 21.9005 32.9211 23.5525 32.7081 24.042Z" fill="#FEFEFE"/>
  <path d="M79.397 32.7574C77.5965 30.8029 80.1888 28.9599 81.2349 28.3203L81.323 28.3476C81.6486 29.7351 81.4516 34.6139 79.397 32.7574ZM80.7066 29.8853C80.2805 30.5154 79.7237 31.655 80.1616 32.5631C80.6801 31.9346 80.9208 31.0009 80.7799 30.0091L80.7066 29.8853Z" fill="#343B95"/>
  <path d="M19.6737 33.4355C19.094 31.6732 18.7411 30.2697 18.8207 28.3203C20.0168 28.9369 22.5338 30.1256 21.0843 32.7574C20.6433 33.19 20.1881 33.37 19.6737 33.4355ZM20.2948 29.8853C19.9622 30.6201 20.0538 31.7001 20.7502 31.7776C21.0892 30.9488 21.0311 29.9899 20.2948 29.8853Z" fill="#343B95"/>
  <path d="M80.1616 32.5631C79.7237 31.6549 80.2805 30.5154 80.7066 29.8853L80.7799 30.0091C80.9208 31.0009 80.6801 31.9346 80.1616 32.5631Z" fill="#FEFEFE"/>
  <path d="M35.2719 37.2437C40.9491 51.1341 46.2897 48.4351 49.9825 33.4351C50.08 33.5446 50.8893 36.5499 51.0418 37.0284C54.9426 49.2665 60.0445 47.8292 64.3412 37.743C66.012 46.5427 69.2137 48.1375 74.0857 42.866C74.7946 42.0991 75.3921 41.1535 76.1484 40.433C73.7191 47.1538 72.6722 50.8113 72.0621 58.2903C64.7889 55.2574 57.0432 55.2034 49.5516 55.2099C44.0862 55.1939 33.0846 55.6011 27.9396 58.2903C27.7703 52.2982 26.2131 45.9506 24.2715 40.7918C29.7998 47.9954 32.742 50.5733 35.2719 37.2437ZM50.1058 37.9924C49.4276 38.6724 48.8716 42.3152 47.6607 44.1211C47.0828 44.983 46.2663 45.3362 46.9831 46.4861C48.0915 48.2643 48.7245 49.2092 49.2493 51.647C49.3749 52.2302 49.7752 55.4739 50.7938 53.5964C51.3764 51.3063 52.1704 49.5797 53.3425 47.8963C55.5778 44.6857 54.5596 45.8349 52.6463 43.0796C51.363 41.2316 51.3227 37.915 50.1058 37.9924ZM35.6196 40.433C35.0599 40.9519 34.2884 46.4909 33.9333 47.9849C34.2138 48.7093 36.2833 53.2157 36.6073 53.3488C37.1208 53.5599 37.3719 52.9176 37.6199 52.362C37.8801 51.8297 39.8996 48.2513 39.867 47.9638C39.7821 47.2166 37.6372 44.2116 37.1268 42.9435C36.7906 42.108 36.4039 40.2005 35.6196 40.433ZM63.7561 41.7888C63.1348 42.5849 63.1221 44.2582 62.7397 45.336C61.5303 48.744 61.347 46.7419 62.6537 49.963C63.0465 50.9311 63.4476 54.6526 64.65 52.8397C65.0244 52.0519 66.9304 48.5004 66.8768 47.8253C66.7999 46.8568 65.5619 45.2919 65.2114 44.2861C64.8802 43.3349 64.6672 41.5794 63.7561 41.7888ZM73.5871 45.7901C72.5569 47.8801 69.6687 53.1415 70.9421 55.8596L71.1328 55.9028C71.2554 55.7298 71.8401 52.0789 72.078 51.2815C72.447 50.0448 73.7415 47.1035 73.6677 45.8924L73.5871 45.7901Z" fill="#343B95"/>
  <path d="M50.7933 53.5966C49.7746 55.474 49.3743 52.2304 49.2487 51.6472C48.7239 49.2094 48.0909 48.2644 46.9825 46.4863C46.2657 45.3363 47.0822 44.9832 47.6602 44.1212C48.871 42.3153 49.4271 38.6725 50.1053 37.9925C51.3222 37.9152 51.3624 41.2317 52.6457 43.0798C54.559 45.8351 55.5773 44.6859 53.3419 47.8964C52.1698 49.5799 51.3758 51.3065 50.7933 53.5966ZM49.9819 40.7919C49.367 42.7307 48.7071 44.4797 47.5497 45.7903C49.0906 47.8528 49.0892 48.5604 49.9819 50.8618C50.6637 48.7918 51.29 47.4719 52.345 45.7903C51.6397 44.829 50.9919 43.8125 50.5103 42.5619C50.3743 42.2089 50.1006 40.9651 49.9819 40.7919Z" fill="#1B1E4E"/>
  <path d="M33.9326 47.985C34.2877 46.4909 35.0592 40.952 35.6189 40.4331C36.4032 40.2006 36.7899 42.108 37.1262 42.9436C37.6365 44.2117 39.7814 47.2167 39.8663 47.9639C39.8989 48.2514 37.8794 51.8298 37.6192 52.3621C37.3712 52.9177 37.1201 53.56 36.6066 53.3489C36.2826 53.2158 34.2131 48.7093 33.9326 47.985ZM37.0933 46.8347C36.5584 46.0468 36.1105 45.0593 35.6189 44.373C35.3795 45.5237 35.1171 46.8834 34.8247 47.985C35.3762 48.766 36.0452 50.1688 36.4771 51.1479C36.6784 50.5023 36.8376 49.9964 37.0933 49.3965L37.7854 47.985C37.5104 47.5741 37.34 47.2864 37.0933 46.8347Z" fill="#1B1E4E"/>
  <path d="M64.6495 52.84C63.4472 54.6529 63.046 50.9314 62.6532 49.9633C61.3465 46.7422 61.5299 48.7443 62.7393 45.3364C63.1217 44.2586 63.1344 42.5852 63.7557 41.7892C64.6667 41.5797 64.8797 43.3353 65.2109 44.2865C65.5614 45.2923 66.7994 46.8571 66.8764 47.8257C66.93 48.5008 65.0239 52.0523 64.6495 52.84ZM64.6495 48.6816L65.1049 47.9852C64.4216 46.6022 64.2638 45.9053 63.7557 44.3733C63.4745 45.5924 62.9553 46.6864 62.4794 47.7629C62.8908 48.6253 63.4262 49.6952 63.7557 50.6059C63.9404 50.0816 64.0685 49.8363 64.3407 49.3967C64.4469 49.1275 64.5282 48.9352 64.6495 48.6816Z" fill="#1B1E4E"/>
  <path d="M50.5602 46.3075C49.46 46.742 50.0078 44.0722 50.2658 43.3813C50.6336 43.8077 50.807 44.6089 50.9452 45.2512C50.8592 45.6707 50.7706 45.9964 50.5602 46.3075Z" fill="#FEFEFE"/>
  <path d="M37.0938 46.8347C36.7532 47.7893 36.5624 48.4431 37.0938 49.3965C36.8381 49.9965 36.6789 50.5023 36.4775 51.1479C36.0457 50.1688 35.3767 48.7661 34.8252 47.985C35.1176 46.8834 35.38 45.5237 35.6194 44.373C36.111 45.0593 36.5589 46.0468 37.0938 46.8347Z" fill="#343B95"/>
  <path d="M64.6496 48.6813C64.7945 45.3888 63.0882 47.7482 64.3408 49.3965C64.0686 49.836 63.9405 50.0814 63.7558 50.6056C63.4263 49.695 62.8909 48.625 62.4795 47.7626C62.9554 46.6861 63.4746 45.5922 63.7558 44.373C64.2639 45.9051 64.4217 46.602 65.105 47.985L64.6496 48.6813Z" fill="#343B95"/>
  <path d="M64.3411 49.3964C63.0885 47.7481 64.7948 45.3887 64.6499 48.6812C64.5286 48.9349 64.4473 49.1271 64.3411 49.3964Z" fill="#FEFEFE"/>
</svg>