<svg xmlns="http://www.w3.org/2000/svg" width="8" height="15" viewBox="0 0 8 15" fill="none">
<path d="M4.19013 13.5442C3.30391 15.1746 2.95565 12.3578 2.84639 11.8513C2.38981 9.73427 1.8391 8.91365 0.874789 7.36948C0.251176 6.37085 0.961534 6.06418 1.46433 5.31562C2.51776 3.74735 3.00153 0.583861 3.59159 -0.0066584C4.65028 -0.0738185 4.68529 2.80633 5.80176 4.41121C7.46631 6.80397 8.3522 5.80598 6.40744 8.59409C5.38774 10.056 4.69693 11.5555 4.19013 13.5442ZM3.48428 2.42438C2.94928 4.10803 2.3752 5.62693 1.36824 6.76504C2.70884 8.55619 2.70756 9.17069 3.48428 11.1693C4.07739 9.37165 4.62233 8.22542 5.54016 6.76504C4.92649 5.93024 4.36294 5.0475 3.94392 3.96146C3.82565 3.65492 3.5875 2.57482 3.48428 2.42438Z" fill="#1B1E4E"/>
</svg>