<svg xmlns="http://www.w3.org/2000/svg" width="142" height="71" viewBox="0 0 142 71" fill="none">
<path d="M58.09 17.9235C55.6826 14.3716 51.5273 9.87972 58.2189 7.76084C64.2125 5.86305 66.5842 9.61159 71.3749 9.42125C74.3879 9.30154 76.6054 7.55872 79.5328 7.21665C81.6805 7.03889 83.8926 7.37555 85.7678 8.49452C89.5109 10.7285 85.9306 15.5623 84.2784 18.1874C92.1609 21.5075 105.569 26.0346 100.73 37.5987C100.157 38.9661 99.4981 39.9496 99.2406 41.4449C98.9193 43.3104 100.512 44.1217 100.438 44.7052L100.315 44.7935C99.661 44.9192 98.6827 43.9332 98.3377 43.415C96.6694 40.9362 98.8496 38.2932 99.4943 35.8615C102.146 25.8601 90.1926 22.6684 83.2944 19.6712C83.0954 19.9732 82.8981 20.3256 82.8089 20.6781C83.3748 21.5218 84.491 22.5937 85.1834 23.3848C91.9572 31.1249 95.9138 40.3039 94.3195 50.6907C92.9809 60.4177 84.9931 62.1723 76.639 62.7078C70.9576 63.072 66.2117 63.3147 60.5145 62.343C50.6287 60.2384 46.8868 56.2201 47.4644 45.2887C47.9539 36.0257 51.9983 28.7701 58.6875 22.6862C58.7876 21.6738 59.0108 20.9173 59.4483 20.01C58.8482 19.1051 58.0606 19.9265 57.2785 20.203C56.2215 20.5766 55.2001 21.0599 54.164 21.4881C31.7195 31.1628 48.1715 39.1134 43.5113 43.6916C43.0893 44.1061 41.9617 45.1226 41.3996 44.5717C41.499 43.3504 44.1666 43.7251 41.9558 39.066C35.587 26.0375 49.0244 22.2333 58.09 17.9235ZM64.649 28.0144C65.1229 27.5561 65.8248 26.9161 66.2447 26.435C63.6023 25.9816 62.0865 25.3372 59.7178 24.1721C53.8864 28.4253 49.6905 37.6198 49.5459 44.6866C50.4493 45.9211 51.6238 47.2003 52.8393 48.1474C53.5668 48.3444 54.3906 48.868 55.054 49.241C62.1138 53.2105 70.4019 55.0419 78.178 51.9709C83.1905 49.9912 87.77 46.6004 90.0849 41.5271C92.3925 36.8919 85.1423 27.5606 82.412 24.1721C81.0399 25.7306 76.0745 26.5327 73.9651 26.9153C74.6692 27.5959 75.0265 28.0571 75.6012 28.8551C79.2158 34.4597 80.4354 41.3963 78.9011 47.8935C78.2578 50.6173 76.3431 46.9332 75.9748 46.3816C75.3638 46.9029 74.2357 48.418 73.4463 48.331C72.3006 48.2049 72.7021 46.791 72.9209 46.079C74.6386 40.3523 73.4402 34.8225 71.4039 29.338C71.2234 28.9009 70.9962 28.4441 70.7913 28.0144H69.9743C69.4232 28.5104 69.2861 28.7197 68.932 29.338C66.1694 31.8383 63.8559 40.9697 63.7856 44.6155C63.7748 45.1785 64.0613 47.0646 63.5413 47.4397C62.4683 48.3145 61.2328 45.7587 60.7052 45.0226C60.2454 45.593 57.5938 48.5985 57.6353 46.0452C57.7491 39.0162 60.1863 33.3465 64.649 28.0144ZM90.347 43.5276C87.8645 48.7186 83.3888 51.7947 78.1211 53.7381C70.4373 56.5731 61.8979 54.7622 54.9719 50.7962C54.482 50.515 53.887 50.0851 53.3943 49.8519C52.0486 48.811 50.5178 47.5703 49.5459 46.1592C49.8054 48.5734 50.1026 50.0215 50.7519 52.3807C52.1626 53.7768 53.3744 54.5093 55.316 55.0564C55.7934 55.1113 56.4414 55.2888 56.9276 55.3853C62.685 56.5281 72.5984 58.4766 77.9494 57.3188C83.3439 56.1707 88.1677 53.2624 90.5935 48.1782C90.6006 48.168 90.6075 48.1577 90.6146 48.1474C90.7337 48.7437 90.0554 50.5325 90.0849 51.3076C89.3576 52.2367 88.691 53.3514 87.8653 54.1655C80.4516 61.4755 69.5251 59.4776 60.4455 57.2759C58.6583 56.8424 56.9891 56.5034 55.316 55.8626C53.5263 55.3555 52.9071 55.0214 51.3695 53.9765C52.9146 57.5945 56.9892 59.1915 60.7052 59.2889C64.2269 61.0143 83.726 59.7042 85.9839 57.6921C91.6311 56.144 92.4951 45.7361 91.051 40.9616C90.856 41.9598 90.6698 42.5758 90.347 43.5276ZM80.348 8.9051C75.4697 9.24644 73.5609 12.5308 67.367 10.5251C64.1906 9.49651 62.6105 8.30582 58.8395 9.41806C57.7117 9.7507 56.2113 10.3627 56.3072 11.7736C56.3656 12.6299 60.6995 18.8078 61.5193 20.01C62.7259 20.444 64.0154 20.8908 65.2094 21.3502C64.7512 20.7218 62.7412 18.1135 62.6337 17.5754L62.7015 17.5117C63.9593 17.998 67.1753 23.4009 68.7798 22.4478C68.8696 22.2079 66.9909 18.3361 66.7516 17.7306C64.1395 17.2099 61.5828 16.6321 59.9698 14.2491C57.6303 10.7931 60.7715 9.00456 60.8595 11.4599C60.9006 12.6008 61.2794 13.3456 62.0987 14.141C64.8095 16.2927 69.0829 16.2245 72.4221 16.2059C74.5941 14.2315 77.4584 12.6471 80.269 11.7658C81.3753 11.4189 84.7077 10.9282 84.6338 12.8566C84.4075 15.6705 77.1464 17.0058 74.6032 17.7306C74.0324 19.2792 73.4483 21.2866 72.7113 22.6862C73.4796 22.5457 74.3598 22.3126 75.1131 22.0824C75.7527 21.2464 77.8804 18.6144 78.6664 18.069L78.7643 18.0917C78.8834 18.6481 76.9222 21.1429 76.5174 21.6934C77.6478 21.4008 79.8487 20.5965 80.9468 20.1208C82.7111 17.1156 84.7568 14.6106 85.9839 11.2104C84.8582 9.3454 82.3765 8.83782 80.348 8.9051ZM67.1059 17.7306C67.9224 19.1605 68.81 20.6816 69.6738 22.0824C70.5874 21.8643 71.1088 21.9633 71.9253 22.3951C72.2231 21.9063 72.4167 21.4008 72.7113 20.9156C73.1685 19.7762 73.6392 18.8285 74.1932 17.7306C71.2375 17.8999 70.134 18.0602 67.1059 17.7306ZM60.7052 21.6934C60.604 22.0471 60.5676 22.3261 60.5145 22.6862C62.4088 23.5991 65.5142 24.7711 67.6103 24.933C67.6066 24.723 67.59 24.368 67.6103 24.1721C65.7702 23.2649 62.718 21.9031 60.7052 21.6934ZM80.9468 22.0824C78.6167 22.6299 75.9949 23.7372 73.5128 24.3855C73.485 24.619 73.4151 24.9936 73.4813 25.1999L73.5128 25.2225C75.2568 24.9228 79.3776 24.1389 80.9468 23.2918C80.9794 22.9723 81.0657 22.4086 80.9969 22.1175L80.9468 22.0824ZM70.2099 23.7444C69.5397 23.8721 69.0988 24.5179 69.2242 25.1887C69.3496 25.8594 69.9937 26.3025 70.665 26.1796C71.3396 26.0562 71.7856 25.4079 71.6596 24.7337C71.5337 24.0593 70.8837 23.6159 70.2099 23.7444ZM68.0408 27.3176C62.8241 31.4566 60.3219 37.5403 59.4483 43.9517C59.6715 43.7346 59.8697 43.5408 60.0789 43.3079C61.0763 42.4604 61.4431 43.1544 62.0987 43.9517C62.3246 38.0201 64.5451 32.6194 67.8473 27.7451C67.9561 27.5846 68.043 27.5116 68.0408 27.3176ZM72.7113 28.0144C74.8354 34.3649 76.3827 37.8246 74.8751 45.0226C75.7734 44.1526 76.4382 43.5707 77.1582 45.0226L77.6162 45.8162C78.4033 40.0376 77.1722 33.9167 73.6865 29.114C73.5192 28.8834 72.923 28.1605 72.7113 28.0144Z" fill="#1D2255"/>
<path d="M61.215 26.4351C62.0919 26.8684 64.0465 27.6508 64.6486 28.0144C60.1859 33.3465 57.7487 39.0162 57.6349 46.0452C57.5934 48.5986 60.245 45.593 60.7048 45.0226C61.2324 45.7587 62.4679 48.3146 63.5409 47.4397C64.0609 47.0646 63.7744 45.1785 63.7852 44.6155C63.8556 40.9697 66.169 31.8383 68.9316 29.338C69.394 29.4315 70.9234 29.3745 71.4035 29.338C73.4399 34.8225 74.6383 40.3523 72.9205 46.079C72.7017 46.791 72.3002 48.2049 73.446 48.3311C74.2353 48.418 75.3634 46.9029 75.9744 46.3816C76.3427 46.9332 78.2574 50.6173 78.9007 47.8935C80.435 41.3964 79.2154 34.4597 75.6008 28.8552C77.9417 28.5161 80.734 27.5447 82.8085 26.4351C85.8102 29.912 88.2641 34.9164 89.468 39.3197C89.5715 39.699 89.9326 41.2731 90.0845 41.5271C87.7696 46.6004 83.1901 49.9912 78.1776 51.9709C70.4016 55.0419 62.1134 53.2105 55.0536 49.241C54.3902 48.868 53.5664 48.3444 52.8389 48.1475C52.4664 41.4183 55.3221 30.4991 61.215 26.4351Z" fill="#343B95"/>
<path d="M53.3936 49.8521C53.8863 50.0853 54.4813 50.5152 54.9712 50.7965C61.8972 54.7625 70.4366 56.5734 78.1204 53.7384C83.3881 51.7949 87.8638 48.7189 90.3463 43.5278C90.465 44.2775 90.5075 47.8879 90.6139 48.1477C90.6068 48.1579 90.5999 48.1682 90.5928 48.1785C88.167 53.2626 83.3432 56.171 77.9487 57.319C72.5977 58.4768 62.6843 56.5283 56.9269 55.3855C56.4407 55.289 55.7927 55.1115 55.3153 55.0566C54.8256 53.4275 53.7662 51.5941 53.3936 49.8521Z" fill="#343B95"/>
<path d="M55.3154 55.8626C56.9885 56.5034 58.6577 56.8424 60.4449 57.2759C69.5246 59.4776 80.4511 61.4755 87.8648 54.1655C88.6904 53.3514 89.357 52.2367 90.0843 51.3076C89.9692 52.5766 87.6457 56.1592 86.7898 57.0373C86.5998 57.2321 86.1505 57.4373 85.9834 57.6921C83.7254 59.7042 64.2263 61.0142 60.7046 59.2889L60.7339 59.2713C60.5187 58.8772 56.2383 58.5511 55.3154 55.8626Z" fill="#343B95"/>
</svg>