<svg xmlns="http://www.w3.org/2000/svg" width="39" height="28" viewBox="0 0 39 28" fill="none">
<path d="M9.21496 0.435059C10.0919 0.868408 12.0465 1.6508 12.6486 2.01439C8.18588 7.34646 5.74872 13.0162 5.63487 20.0452C5.59341 22.5986 8.24495 19.593 8.70479 19.0226C9.23244 19.7587 10.4679 22.3146 11.5409 21.4397C12.0609 21.0646 11.7744 19.1785 11.7852 18.6155C11.8556 14.9697 14.169 5.83827 16.9316 3.33801C17.394 3.43148 18.9234 3.37449 19.4035 3.33801C21.4399 8.82248 22.6383 14.3523 20.9205 20.079C20.7017 20.791 20.3002 22.2049 21.446 22.3311C22.2353 22.418 23.3634 20.9029 23.9744 20.3816C24.3427 20.9332 26.2574 24.6173 26.9007 21.8935C28.435 15.3964 27.2154 8.45972 23.6008 2.85516C25.9417 2.51611 28.734 1.54471 30.8085 0.435059C33.8102 3.91198 36.2641 8.91636 37.468 13.3197C37.5715 13.699 37.9326 15.2731 38.0845 15.5271C35.7696 20.6004 31.1901 23.9912 26.1776 25.9709C18.4016 29.0419 10.1134 27.2105 3.05363 23.241C2.39023 22.868 1.56638 22.3444 0.83891 22.1475C0.466438 15.4183 3.3221 4.49911 9.21496 0.435059Z" fill="#343B95"/>
</svg>